<svg width="225" height="225" viewBox="0 0 225 225" fill="none" xmlns="http://www.w3.org/2000/svg">
<circle cx="112.5" cy="112.5" r="112.5" fill="#EBE9E1"/>
<path d="M114 67V166" stroke="#E43D12" stroke-width="17"/>
<path d="M141.705 72.9169L82.3954 63" stroke="#E43D12" stroke-width="17"/>
<path d="M143 93.8326L140.856 74.3209C140.069 67.1614 134.305 61.5718 127.125 61.0057L100.828 58.9325C93.8957 58.386 87.4969 62.6753 85.3687 69.2951L81 82.8837M81 82.8837L83.3525 101.282C84.0583 106.801 87.7616 111.477 92.9729 113.427L132.111 128.078C138.52 130.477 142.493 136.91 141.768 143.715L140.929 151.589C140.116 159.215 133.682 165 126.013 165H97.1972C89.8689 165 83.6134 159.705 82.4031 152.477L81.206 145.328C81.0689 144.509 81 143.681 81 142.851V82.8837Z" stroke="black" stroke-width="17"/>
</svg>
